<svg xmlns="http://www.w3.org/2000/svg" width="1427" height="954.864" viewBox="0 0 1427 954.864"><g fill="#281466"><path d="M 713.5 954.3637084960938 C 688.6363525390625 954.3637084960938 664.0971069335938 953.9974975585938 640.564208984375 953.2753295898438 C 616.3681640625 952.532958984375 592.5387573242188 951.3926391601563 569.73779296875 949.8864135742188 C 546.3272705078125 948.3399047851563 523.3285522460938 946.3629760742188 501.3801879882813 944.0108032226563 C 478.8732604980469 941.5988159179688 456.8258056640625 938.7227783203125 435.8503723144531 935.4627685546875 C 414.3654479980469 932.1237182617188 393.3901672363281 928.2862548828125 373.5076293945313 924.0568237304688 C 353.1629028320313 919.7291870117188 333.3809204101563 914.86767578125 314.7109069824219 909.6073608398438 C 295.6252746582031 904.2298583984375 277.1571044921875 898.2820434570313 259.81982421875 891.9293212890625 C 242.1116333007813 885.4407958984375 225.0781860351563 878.3446044921875 209.1929016113281 870.8382568359375 C 192.9807281494141 863.1775512695313 177.5027313232422 854.8711547851563 163.1889038085938 846.14990234375 C 148.5910949707031 837.255859375 134.7887268066406 827.6773681640625 122.1650924682617 817.6802368164063 C 109.2996368408203 807.4918823242188 97.29254913330078 796.5791625976563 86.47727203369141 785.2451782226563 C 75.46163940429688 773.7008056640625 65.36908721923828 761.3911743164063 56.48036193847656 748.6582641601563 C 47.4312744140625 735.6958618164063 39.3725471496582 721.9260864257813 32.52799987792969 707.731689453125 C 25.56309127807617 693.2879028320313 19.65727233886719 677.993896484375 14.97490882873535 662.2744140625 C 10.21236324310303 646.2855224609375 6.579999923706055 629.4024047851563 4.178909301757813 612.09423828125 C 1.737818241119385 594.4967651367188 0.5 575.96044921875 0.5 557.0000610351563 C 0.5 538.0219116210938 1.73800003528595 518.8829956054688 4.179454326629639 500.1146240234375 C 6.585818290710449 481.6177062988281 10.21945476531982 463.0313415527344 14.97945499420166 444.8718872070313 C 19.67799949645996 426.9469604492188 25.5869083404541 409.0069885253906 32.54199981689453 391.5502624511719 C 39.41963577270508 374.2884216308594 47.48363494873047 357.088623046875 56.5099983215332 340.4286193847656 C 65.45345306396484 323.921875 75.55218505859375 307.5562438964844 86.5260009765625 291.7862548828125 C 97.42218017578125 276.1277160644531 109.4356384277344 260.6904296875 122.2327270507813 245.9031524658203 C 134.9683685302734 231.1867980957031 148.7761840820313 216.7720642089844 163.2723693847656 203.0595245361328 C 177.733642578125 189.3800659179688 193.2152709960938 176.0822448730469 209.2870941162109 163.5357055664063 C 225.3592681884766 150.9886169433594 242.3941802978516 138.9022521972656 259.9185485839844 127.6120681762695 C 277.4863586425781 116.2938842773438 295.9540100097656 105.5131607055664 314.8087158203125 95.56916046142578 C 333.7552795410156 85.57661437988281 353.5350952148438 76.19588470458984 373.5987243652344 67.68733978271484 C 393.8065490722656 59.11751937866211 414.77783203125 51.23097610473633 435.9303588867188 44.24661254882813 C 457.2805480957031 37.19697570800781 479.3227233886719 30.89897537231445 501.4449157714844 25.52752113342285 C 523.817626953125 20.09515762329102 546.8101806640625 15.48006629943848 569.7838134765625 11.81006622314453 C 593.0587158203125 8.092066764831543 616.8807373046875 5.253703117370605 640.58837890625 3.374248504638672 C 664.6441650390625 1.467157483100891 689.17529296875 0.5000665783882141 713.5 0.5000665783882141 C 737.82470703125 0.5000665783882141 762.3558349609375 1.467157483100891 786.4118041992188 3.374248504638672 C 810.1192626953125 5.253703117370605 833.9414672851563 8.092066764831543 857.2163696289063 11.81006622314453 C 880.1898193359375 15.48006629943848 903.182373046875 20.09515762329102 925.5551147460938 25.52752113342285 C 947.67724609375 30.89897537231445 969.7196655273438 37.19697570800781 991.0696411132813 44.24661254882813 C 1012.22216796875 51.23097610473633 1033.193603515625 59.11751937866211 1053.401245117188 67.68733978271484 C 1073.464965820313 76.19588470458984 1093.244873046875 85.57661437988281 1112.19140625 95.56916046142578 C 1131.046020507813 105.5131607055664 1149.513793945313 116.2938842773438 1167.081420898438 127.6120681762695 C 1184.605834960938 138.9022521972656 1201.640747070313 150.9886169433594 1217.713134765625 163.5357055664063 C 1233.784912109375 176.0822448730469 1249.266357421875 189.3800659179688 1263.727661132813 203.0595245361328 C 1278.223999023438 216.7720642089844 1292.031616210938 231.1867980957031 1304.767211914063 245.9031524658203 C 1317.564331054688 260.6904296875 1329.577758789063 276.1277160644531 1340.473999023438 291.7862548828125 C 1351.447875976563 307.5562438964844 1361.546508789063 323.921875 1370.489990234375 340.4286193847656 C 1379.5166015625 357.088623046875 1387.580322265625 374.2884216308594 1394.4580078125 391.5502624511719 C 1401.4130859375 409.0069885253906 1407.322021484375 426.9469604492188 1412.0205078125 444.8718872070313 C 1416.780517578125 463.0313415527344 1420.414184570313 481.6177062988281 1422.820556640625 500.1146240234375 C 1425.261962890625 518.8829956054688 1426.5 538.0219116210938 1426.5 557.0000610351563 C 1426.5 575.96044921875 1425.26220703125 594.4967651367188 1422.821044921875 612.09423828125 C 1420.420043945313 629.4024047851563 1416.78759765625 646.2855224609375 1412.025146484375 662.2744140625 C 1407.3427734375 677.993896484375 1401.436889648438 693.2879028320313 1394.472045898438 707.731689453125 C 1387.62744140625 721.9260864257813 1379.568725585938 735.6958618164063 1370.519653320313 748.6582641601563 C 1361.630859375 761.3911743164063 1351.53857421875 773.7008056640625 1340.522705078125 785.2451782226563 C 1329.707641601563 796.5791625976563 1317.700561523438 807.4918823242188 1304.835083007813 817.6802368164063 C 1292.211303710938 827.6773681640625 1278.408935546875 837.255859375 1263.81103515625 846.14990234375 C 1249.497314453125 854.8711547851563 1234.019287109375 863.1775512695313 1217.80712890625 870.8382568359375 C 1201.921875 878.3446044921875 1184.888549804688 885.4407958984375 1167.180419921875 891.9293212890625 C 1149.842895507813 898.2820434570313 1131.374877929688 904.2298583984375 1112.2890625 909.6073608398438 C 1093.619262695313 914.86767578125 1073.837036132813 919.7291870117188 1053.492553710938 924.0568237304688 C 1033.60986328125 928.2862548828125 1012.634704589844 932.1237182617188 991.149658203125 935.4627685546875 C 970.1741943359375 938.7227783203125 948.126708984375 941.5988159179688 925.6198120117188 944.0108032226563 C 903.6714477539063 946.3629760742188 880.6727294921875 948.3399047851563 857.26220703125 949.8864135742188 C 834.4612426757813 951.3926391601563 810.6320190429688 952.532958984375 786.4359741210938 953.2753295898438 C 762.9028930664063 953.9974975585938 738.3636474609375 954.3637084960938 713.5 954.3637084960938 Z" stroke="none"/><path d="M 713.5 1.00006103515625 C 689.1883544921875 1.00006103515625 664.6705322265625 1.96661376953125 640.6278076171875 3.87261962890625 C 616.9332885742188 5.75115966796875 593.1245727539063 8.587890625 569.862548828125 12.30389404296875 C 546.9021606445313 15.9716796875 523.9227294921875 20.584228515625 501.5629272460938 26.0135498046875 C 479.45361328125 31.3817138671875 457.424560546875 37.67608642578125 436.0870971679688 44.72149658203125 C 414.9476318359375 51.7015380859375 393.9891357421875 59.5831298828125 373.7938232421875 68.14752197265625 C 353.7430419921875 76.650634765625 333.9759521484375 86.0255126953125 315.0418701171875 96.0113525390625 C 296.199951171875 105.9486083984375 277.744873046875 116.7220458984375 260.1893310546875 128.0324096679688 C 242.6776123046875 139.314453125 225.6551513671875 151.39208984375 209.5946044921875 163.9298706054688 C 193.5352783203125 176.4666137695313 178.0657958984375 189.7540893554688 163.6158447265625 203.4227905273438 C 149.131591796875 217.1239013671875 135.335693359375 231.5264282226563 122.6107177734375 246.2304077148438 C 109.8253173828125 261.0044555664063 97.822509765625 276.4276733398438 86.9364013671875 292.0718994140625 C 75.9732666015625 307.8265991210938 65.8841552734375 324.1764526367188 56.9495849609375 340.6668090820313 C 47.932373046875 357.3096923828125 39.876953125 374.4915161132813 33.006591796875 391.7353515625 C 26.0589599609375 409.1729736328125 20.156494140625 427.0933227539063 15.463134765625 444.9986267089844 C 10.7083740234375 463.1376953125 7.078857421875 481.7031555175781 4.67529296875 500.1789855957031 C 2.236572265625 518.926025390625 1 538.0435180664063 1 557.0000610351563 C 1 575.9375 2.2362060546875 594.4508056640625 4.6741943359375 612.0255126953125 C 7.07177734375 629.308837890625 10.69873046875 646.1669921875 15.4542236328125 662.1315307617188 C 20.12890625 677.8255615234375 26.02490234375 693.0946044921875 32.9783935546875 707.5146484375 C 39.811279296875 721.6849975585938 47.8565673828125 735.4315185546875 56.890380859375 748.3720703125 C 65.7645263671875 761.084228515625 75.8406982421875 773.3739013671875 86.839111328125 784.89990234375 C 97.63818359375 796.2171630859375 109.6280517578125 807.1142578125 122.4754638671875 817.2884521484375 C 135.0831298828125 827.2725830078125 148.8685302734375 836.8395385742188 163.4488525390625 845.7229614257813 C 177.747802734375 854.4349975585938 193.210205078125 862.7327880859375 209.406494140625 870.38623046875 C 225.2781982421875 877.88623046875 242.297607421875 884.9764404296875 259.9918212890625 891.4598999023438 C 277.317138671875 897.8082275390625 295.77294921875 903.7520751953125 314.8465576171875 909.1260986328125 C 333.5059814453125 914.383544921875 353.2774658203125 919.242431640625 373.6116943359375 923.5676879882813 C 393.4852294921875 927.795166015625 414.4511108398438 931.6309814453125 435.9270629882813 934.9688110351563 C 456.8948974609375 938.2275390625 478.9343872070313 941.1024169921875 501.4334716796875 943.5137329101563 C 523.3750610351563 945.8651733398438 546.3670654296875 947.84130859375 569.770751953125 949.3875122070313 C 592.5657958984375 950.893310546875 616.3892822265625 952.0333251953125 640.5794677734375 952.7756958007813 C 664.1072998046875 953.4976806640625 688.6414794921875 953.8637084960938 713.5 953.8637084960938 C 738.3585205078125 953.8637084960938 762.8925170898438 953.4976806640625 786.4205322265625 952.7756958007813 C 810.6107177734375 952.0333251953125 834.4342041015625 950.893310546875 857.229248046875 949.3875122070313 C 880.6329345703125 947.84130859375 903.6249389648438 945.8651733398438 925.5665283203125 943.5137329101563 C 948.065673828125 941.1024169921875 970.1051025390625 938.2275390625 991.07275390625 934.9688110351563 C 1012.548706054688 931.6309814453125 1033.514770507813 927.795166015625 1053.388427734375 923.5676879882813 C 1073.722534179688 919.242431640625 1093.494018554688 914.383544921875 1112.153442382813 909.1260986328125 C 1131.226928710938 903.7520751953125 1149.682739257813 897.8082275390625 1167.008178710938 891.4598999023438 C 1184.702392578125 884.9764404296875 1201.7216796875 877.88623046875 1217.593505859375 870.38623046875 C 1233.789672851563 862.7327880859375 1249.251953125 854.4349975585938 1263.550903320313 845.7229614257813 C 1278.131225585938 836.8395385742188 1291.916870117188 827.2725830078125 1304.524536132813 817.2884521484375 C 1317.371948242188 807.1142578125 1329.361572265625 796.2171630859375 1340.160888671875 784.89990234375 C 1351.159301757813 773.3739013671875 1361.235473632813 761.084228515625 1370.109619140625 748.3720703125 C 1379.143432617188 735.4315185546875 1387.188598632813 721.6849975585938 1394.021606445313 707.5146484375 C 1400.97509765625 693.0946044921875 1406.87109375 677.8255615234375 1411.545776367188 662.1315307617188 C 1416.30126953125 646.1669921875 1419.92822265625 629.308837890625 1422.325805664063 612.0255126953125 C 1424.763793945313 594.4508056640625 1426 575.9375 1426 557.0000610351563 C 1426 538.0435180664063 1424.763427734375 518.926025390625 1422.324584960938 500.1789855957031 C 1419.921142578125 481.7031555175781 1416.291625976563 463.1376953125 1411.536865234375 444.9986267089844 C 1406.843505859375 427.0933227539063 1400.941040039063 409.1729736328125 1393.993408203125 391.7353515625 C 1387.123046875 374.4915161132813 1379.067504882813 357.3096923828125 1370.050415039063 340.6668090820313 C 1361.115844726563 324.1764526367188 1351.026733398438 307.8265991210938 1340.063598632813 292.0718994140625 C 1329.17724609375 276.4276733398438 1317.174682617188 261.0044555664063 1304.389282226563 246.2304077148438 C 1291.664306640625 231.5264282226563 1277.8681640625 217.1239013671875 1263.384033203125 203.4227905273438 C 1248.934204101563 189.7540893554688 1233.464721679688 176.4666137695313 1217.4052734375 163.9298706054688 C 1201.3447265625 151.39208984375 1184.322387695313 139.314453125 1166.810546875 128.0324096679688 C 1149.2548828125 116.7220458984375 1130.800048828125 105.9486083984375 1111.958251953125 96.0113525390625 C 1093.023803710938 86.0255126953125 1073.256713867188 76.650634765625 1053.2060546875 68.14752197265625 C 1033.010864257813 59.5831298828125 1012.052368164063 51.7015380859375 990.9129028320313 44.72149658203125 C 969.575439453125 37.67608642578125 947.546142578125 31.3817138671875 925.4371337890625 26.0135498046875 C 903.0772705078125 20.584228515625 880.0978393554688 15.9716796875 857.137451171875 12.30389404296875 C 833.8754272460938 8.587890625 810.0665283203125 5.75115966796875 786.3721923828125 3.87261962890625 C 762.3294677734375 1.96661376953125 737.8116455078125 1.00006103515625 713.5 1.00006103515625 M 713.5 6.103515625e-05 C 1107.555053710938 6.103515625e-05 1427 249.3773193359375 1427 557.0000610351563 C 1427 864.6226196289063 1107.555053710938 954.8637084960938 713.5 954.8637084960938 C 319.4447021484375 954.8637084960938 0 864.6226196289063 0 557.0000610351563 C 0 249.3773193359375 319.4447021484375 6.103515625e-05 713.5 6.103515625e-05 Z" stroke="none" fill="#281466"/></g></svg>