<svg xmlns="http://www.w3.org/2000/svg" width="828.614" height="543.628" viewBox="0 0 828.614 543.628">
  <defs>
    <style>
      .cls-1, .cls-5 {
        fill: #fff;
      }

      .cls-2, .cls-3, .cls-6 {
        fill: #3a0e64;
      }

      .cls-3 {
        stroke: #3a0e64;
      }

      .cls-4, .cls-5, .cls-6 {
        stroke: none;
      }

      .cls-7 {
        fill: none;
      }
    </style>
  </defs>
  <g id="Group_8" data-name="Group 8" transform="translate(1020.558 -319.601)">
    <g id="Path_9" data-name="Path 9" class="cls-1" transform="matrix(0.995, 0.105, -0.105, 0.995, -968.804, 317.572)">
      <path class="cls-4" d="M 250.5881500244141 494.6179809570313 C 233.6192779541016 494.6179809570313 216.6612091064453 492.9288635253906 200.1849517822266 489.5975341796875 C 184.1278381347656 486.3509826660156 168.3335266113281 481.506591796875 153.2407073974609 475.198974609375 C 138.4219512939453 469.0059204101563 124.1292114257813 461.3406066894531 110.759521484375 452.4159240722656 C 97.51689910888672 443.5760498046875 85.0640869140625 433.4240417480469 73.74702453613281 422.2419128417969 C 62.43008422851563 411.0599060058594 52.15570831298828 398.7557983398438 43.20927047729492 385.6712341308594 C 34.17720794677734 372.4614868164063 26.41970825195313 358.3397216796875 20.15214729309082 343.6982421875 C 13.76877117156982 328.7862854003906 8.866271018981934 313.1812438964844 5.580708980560303 297.3165283203125 C 2.209396362304688 281.0379333496094 0.5000213384628296 264.2832336425781 0.5000213384628296 247.5178527832031 C 0.5000213384628296 230.8265991210938 3.068208932876587 213.3491058349609 8.133271217346191 195.5709228515625 C 12.97539615631104 178.5749816894531 20.0298957824707 161.5194854736328 29.1007080078125 144.878173828125 C 37.94252014160156 128.6569213867188 48.50320816040039 113.1802291870117 60.48939514160156 98.87798309326172 C 72.46070861816406 84.59342193603516 85.54296112060547 71.85123443603516 99.37271118164063 61.00535583496094 C 111.8740234375 51.20122909545898 126.0600204467773 42.17641830444336 141.5366516113281 34.18160629272461 C 153.9209594726563 27.7841682434082 167.1543273925781 22.02835655212402 180.8690795898438 17.07410621643066 C 193.0712738037109 12.66623115539551 203.4023284912109 9.722543716430664 209.9203338623047 8.029293060302734 C 215.6700897216797 6.535637855529785 219.5372467041016 5.727429389953613 220.7952880859375 5.474996089935303 C 221.2125549316406 7.120983600616455 221.0765228271484 9.221495628356934 220.3829650878906 11.87560558319092 C 219.6874542236328 14.53723049163818 218.4377136230469 17.70929336547852 216.5622100830078 21.57310676574707 C 213.0288391113281 28.85229301452637 207.7065277099609 37.66023254394531 202.0717163085938 46.98535537719727 C 196.5683898925781 56.09279251098633 190.8777160644531 65.51035308837891 185.8210144042969 75.10560607910156 C 179.582275390625 86.94379425048828 174.9388275146484 98.82341766357422 172.0196533203125 110.4144821166992 L 172.0016479492188 110.4859771728516 L 172.0050201416016 110.5595397949219 C 172.8058929443359 127.9888534545898 175.4611511230469 146.7807922363281 178.0289001464844 164.9539794921875 C 179.6190185546875 176.2079162597656 181.2632751464844 187.8449249267578 182.3833923339844 198.6959228515625 L 182.3867034912109 198.7275390625 L 182.3938903808594 198.758544921875 C 182.5699615478516 199.5107879638672 182.6648406982422 200.3237915039063 182.6840209960938 201.2437896728516 L 182.6845855712891 201.2711639404297 L 182.6881408691406 201.2982940673828 C 185.9158325195313 225.9571075439453 198.3670806884766 246.8683624267578 203.0544586181641 254.7405395507813 C 204.0063323974609 256.3392333984375 204.9058685302734 257.8499145507813 204.9777221679688 258.1773986816406 L 204.9816436767578 258.2734680175781 L 205.0332641601563 258.37255859375 C 209.5215148925781 266.9837951660156 220.7112121582031 281.239990234375 238.6559600830078 295.4266052246094 C 260.0743408203125 312.3593444824219 285.9170837402344 324.9116821289063 313.3904724121094 331.7265930175781 L 313.4182739257813 331.7334899902344 L 313.4467163085938 331.7371826171875 C 333.9930725097656 334.3952941894531 353.5945739746094 336.7004699707031 371.7067565917969 338.5885314941406 L 371.7687683105469 338.5950317382813 L 371.8303833007813 338.5861206054688 C 389.7696533203125 335.9849243164063 404.6946411132813 333.899658203125 417.4582824707031 332.2112426757813 L 417.4765930175781 332.2088012695313 L 417.4947204589844 332.2050476074219 C 434.6827087402344 328.6212158203125 449.9410095214844 324.8542175292969 462.2013244628906 321.8274230957031 C 480.2062683105469 317.3822937011719 493.2151489257813 314.170654296875 500.9654541015625 314.170654296875 C 503.7499694824219 314.170654296875 505.736083984375 314.5832824707031 507.0372009277344 315.4321594238281 C 508.3243408203125 316.2718505859375 508.9500122070313 317.5758056640625 508.9500122070313 319.4185485839844 C 508.9500122070313 327.8303527832031 508.4846496582031 336.0564880371094 507.5667724609375 343.868408203125 C 506.665771484375 351.5368041992188 505.3037719726563 359.0189208984375 503.5185852050781 366.1070556640625 C 501.76708984375 373.0614929199219 499.5595703125 379.8296203613281 496.9573974609375 386.2234191894531 C 494.4054565429688 392.4938049316406 491.4031372070313 398.5782165527344 488.0337829589844 404.3078002929688 C 484.73095703125 409.9241638183594 480.9838256835938 415.3552856445313 476.8963928222656 420.4504089355469 C 472.8916320800781 425.4425354003906 468.4491577148438 430.25048828125 463.6923828125 434.74072265625 C 459.0343933105469 439.1377868652344 453.9458923339844 443.3519897460938 448.5683898925781 447.2662353515625 C 443.3058471679688 451.0968017578125 437.6208190917969 454.74609375 431.6713256835938 458.11279296875 C 420.1675109863281 464.62255859375 407.2076416015625 470.3405456542969 393.1515808105469 475.1080932617188 C 379.7575988769531 479.6510925292969 365.0133972167969 483.451416015625 349.3286437988281 486.4034729003906 C 334.4437866210938 489.2049255371094 318.3202209472656 491.3162231445313 301.40576171875 492.6787414550781 C 285.4307861328125 493.9655456542969 268.3332824707031 494.6179809570313 250.5881500244141 494.6179809570313 Z M 319.4454040527344 344.55029296875 C 314.5065307617188 344.55029296875 313.7998352050781 344.8435363769531 313.499267578125 345.1439208984375 L 312.5755920410156 346.0671691894531 L 313.879638671875 345.9968566894531 C 316.3424682617188 345.8641662597656 318.7395324707031 345.7212219238281 321.2078247070313 345.56005859375 L 321.1810913085938 344.5610961914063 C 320.5671997070313 344.5539245605469 319.9832763671875 344.55029296875 319.4454040527344 344.55029296875 Z M 164.6447143554688 237.5184173583984 C 164.4973907470703 237.5184173583984 164.3573303222656 237.5823516845703 164.2602691650391 237.6939239501953 C 164.0850830078125 237.8953552246094 164.0823364257813 238.0766754150391 164.2377014160156 239.1862335205078 C 164.3041534423828 239.6597290039063 164.6752014160156 239.6837310791016 164.7489624023438 239.6837310791016 L 164.9580841064453 239.6837310791016 L 165.1062164306641 239.5342254638672 C 165.2762756347656 239.3617248535156 165.275146484375 239.2778625488281 165.2609558105469 238.25048828125 L 165.2598266601563 238.1674194335938 L 165.2318267822266 238.0891723632813 C 165.1555786132813 237.8756713867188 165.0279541015625 237.5184173583984 164.6447143554688 237.5184173583984 Z"/>
      <path class="cls-5" d="M 220.4092712402344 6.0638427734375 C 218.8006896972656 6.395538330078125 215.1582336425781 7.184478759765625 210.0092163085938 8.522857666015625 C 203.4995727539063 10.21478271484375 193.1824035644531 13.15597534179688 180.9983215332031 17.55899047851563 C 167.3093872070313 22.505859375 154.1017150878906 28.25210571289063 141.7420349121094 34.63824462890625 C 126.3027038574219 42.61553955078125 112.1513977050781 51.61911010742188 99.68121337890625 61.3988037109375 C 85.8787841796875 72.22329711914063 72.8216552734375 84.941162109375 60.87258911132813 99.19915771484375 C 48.90765380859375 113.4761047363281 38.36572265625 128.9252319335938 29.53970336914063 145.117431640625 C 20.486572265625 161.7263488769531 13.44613647460938 178.7474060058594 8.61407470703125 195.7078552246094 C 3.561767578125 213.4415283203125 1.000030517578125 230.8729248046875 1.000030517578125 247.5178527832031 C 1.000030517578125 264.2492370605469 2.705902099609375 280.9697875976563 6.070281982421875 297.215087890625 C 9.349090576171875 313.0471801757813 14.2415771484375 328.6201782226563 20.61178588867188 343.50146484375 C 26.86651611328125 358.113037109375 34.60833740234375 372.2060546875 43.62200927734375 385.3889770507813 C 52.55044555664063 398.4472351074219 62.80419921875 410.7266845703125 74.09844970703125 421.88623046875 C 85.39288330078125 433.0460510253906 97.82089233398438 443.1777954101563 111.0371398925781 452.0000305175781 C 124.3801574707031 460.9069213867188 138.6443481445313 468.5569763183594 153.4335327148438 474.7376708984375 C 168.4961547851563 481.0326538085938 184.2589721679688 485.8673706054688 200.2840881347656 489.1074829101563 C 216.7277221679688 492.4321594238281 233.6524658203125 494.1179809570313 250.588134765625 494.1179809570313 C 268.3198852539063 494.1179809570313 285.4039001464844 493.4660339355469 301.3656616210938 492.1803588867188 C 318.2625732421875 490.8193054199219 334.3685913085938 488.7103576660156 349.2361450195313 485.912109375 C 364.8978881835938 482.96435546875 379.619140625 479.1700439453125 392.9910278320313 474.6346130371094 C 407.0173950195313 469.8771057128906 419.9485168457031 464.1719665527344 431.4250793457031 457.6776123046875 C 437.3580932617188 454.3202819824219 443.0269775390625 450.6813659667969 448.2741394042969 446.8619689941406 C 453.634521484375 442.9601745605469 458.7065124511719 438.7596740722656 463.3492126464844 434.3771057128906 C 468.0892639160156 429.9026794433594 472.5159606933594 425.1117858886719 476.5064086914063 420.1375427246094 C 480.5787658691406 415.0611572265625 484.3121337890625 409.6499633789063 487.602783203125 404.0542907714844 C 490.9599609375 398.3456115722656 493.9514465332031 392.2829895019531 496.4942626953125 386.034912109375 C 499.0877075195313 379.66259765625 501.2879028320313 372.9168090820313 503.0337219238281 365.9849243164063 C 504.8136596679688 358.917724609375 506.1717224121094 351.45703125 507.0701599121094 343.81005859375 C 507.9857788085938 336.0174255371094 508.4500122070313 327.8109130859375 508.4500122070313 319.4185485839844 C 508.4500122070313 317.7350463867188 507.9145812988281 316.6014404296875 506.7650146484375 315.8509826660156 C 505.54833984375 315.0566711425781 503.652587890625 314.6705322265625 500.965576171875 314.670654296875 C 493.2762756347656 314.6718139648438 480.292724609375 317.8769226074219 462.3228454589844 322.31298828125 C 455.3670959472656 324.0300903320313 447.447265625 325.9852294921875 438.7565307617188 328.0102844238281 C 454.3567199707031 326.1605529785156 464.8433532714844 325.2536010742188 470.572021484375 325.2530517578125 C 470.5738830566406 325.2530517578125 470.5755920410156 325.2530517578125 470.5774536132813 325.2530517578125 C 474.9335632324219 325.2530517578125 475.9824829101563 325.7798767089844 476.3214721679688 326.6896667480469 C 476.4517211914063 327.039306640625 476.5436401367188 327.7353515625 475.6955261230469 328.4691162109375 C 474.4510192871094 329.5455932617188 466.368408203125 332.7732238769531 462.9511413574219 334.1109619140625 C 456.0514526367188 336.8119506835938 447.8175048828125 339.809326171875 439.3538818359375 342.7057495117188 C 448.2685546875 343.2251586914063 455.4862060546875 343.548095703125 461.4681396484375 343.815673828125 C 481.1168212890625 344.6947937011719 486.3977661132813 344.9310302734375 489.2737731933594 349.6362915039063 C 489.558349609375 350.102294921875 489.5751953125 350.6304931640625 489.3199462890625 351.0854797363281 C 488.7490234375 352.1031494140625 487.0055847167969 353.0967407226563 472.8312072753906 353.0967407226563 C 465.3738708496094 353.0967407226563 451.1598815917969 352.8641357421875 413.9871826171875 350.8567810058594 C 393.7369384765625 356.9384155273438 364.5826416015625 364.6069946289063 340.3461303710938 366.7261047363281 C 339.2545166015625 366.8215942382813 338.1348876953125 366.8699951171875 337.0184020996094 366.8699951171875 C 325.2748413085938 366.8699951171875 314.369384765625 361.5458374023438 307.2887573242188 357.0794677734375 C 303.1570434570313 354.4732360839844 299.9512939453125 351.93798828125 297.989501953125 350.2701721191406 C 296.7404174804688 349.2081909179688 295.8948974609375 348.4141235351563 295.4055786132813 347.9349365234375 C 294.405517578125 346.9557495117188 294.2165832519531 346.6865844726563 294.2161865234375 346.2410888671875 C 294.2156982421875 345.687255859375 294.6644287109375 345.2354736328125 295.2194213867188 345.2312622070313 C 301.2939758300781 345.0799560546875 307.4564819335938 344.8382873535156 313.54052734375 344.5129089355469 C 314.141845703125 344.2318420410156 315.4751586914063 344.05029296875 319.4453125 344.05029296875 C 319.9758911132813 344.05029296875 320.5486755371094 344.0538330078125 321.1483764648438 344.0607299804688 C 323.0838012695313 343.9341125488281 325.0443115234375 343.7970886230469 326.976318359375 343.6532592773438 C 331.4019775390625 343.0107421875 336.8084106445313 342.2126159667969 343.0658264160156 341.2889404296875 C 349.3977661132813 340.354248046875 356.3561706542969 339.3270263671875 363.7541198730469 338.2460632324219 C 347.8825073242188 336.5271606445313 330.9784545898438 334.5094604492188 313.3825073242188 332.2330322265625 L 313.3257141113281 332.2256469726563 L 313.2700805664063 332.2118530273438 C 285.7280883789063 325.3799743652344 259.8197021484375 312.7954711914063 238.3458862304688 295.81884765625 C 220.3393249511719 281.5833740234375 209.1020812988281 267.2607421875 204.5899047851563 258.6036071777344 L 204.4866333007813 258.4056091308594 L 204.48095703125 258.2664794921875 C 204.3319091796875 257.86328125 203.5018615722656 256.4691772460938 202.6248474121094 254.9962921142578 C 198.3953857421875 247.8931579589844 187.8642272949219 230.2063598632813 183.4318542480469 208.701416015625 C 183.053955078125 211.4553527832031 182.8509521484375 214.0006713867188 183.7777099609375 215.8803405761719 L 183.8413391113281 216.0094909667969 L 183.8660278320313 216.1513671875 C 184.1818237304688 217.9685363769531 181.08251953125 220.7832946777344 173.3957214355469 227.2506713867188 C 171.4313354492188 228.9033508300781 169.5758972167969 230.4644165039063 168.1383972167969 231.7717895507813 C 166.3541259765625 233.3945922851563 165.8751831054688 234.0382690429688 165.7470703125 234.265625 C 166.57275390625 239.9039154052734 166.4722290039063 240.0206604003906 166.10791015625 240.4424743652344 C 165.9134521484375 240.6675415039063 165.6320190429688 240.7966613769531 165.3359069824219 240.7966613769531 C 164.7738342285156 240.7966613769531 164.4907836914063 240.4106903076172 164.3387145996094 240.0942993164063 C 164.0723571777344 239.9769134521484 163.8086242675781 239.7278442382813 163.7425842285156 239.2555999755859 C 163.6144104003906 238.3406829833984 163.5539855957031 237.909423828125 163.74853515625 237.5557556152344 C 163.553466796875 228.059326171875 161.7356567382813 180.1486206054688 161.7168273925781 179.65185546875 L 161.6797790527344 178.6768493652344 L 162.6535949707031 178.6158447265625 C 162.6657104492188 178.6151123046875 162.85498046875 178.6034851074219 163.1829223632813 178.5951232910156 C 163.25634765625 176.6229858398438 163.3362426757813 174.4152221679688 163.4266967773438 171.91455078125 C 164.1425170898438 152.1309204101563 165.3405151367188 119.01904296875 167.4185180664063 90.52597045898438 C 168.5704650878906 74.73052978515625 169.8568420410156 62.349609375 171.2419738769531 53.72711181640625 C 172.038330078125 48.7696533203125 172.8870239257813 44.93853759765625 173.764404296875 42.34024047851563 C 174.4619445800781 40.274658203125 175.6209106445313 37.52847290039063 177.6240234375 37.52774047851563 C 178.5686950683594 37.52728271484375 179.4225769042969 38.11685180664063 180.2344055175781 39.33004760742188 C 181.13232421875 40.67178344726563 180.5733947753906 43.82318115234375 178.824951171875 52.7381591796875 C 176.7157592773438 63.49267578125 173.5283203125 79.74505615234375 173.27734375 97.7747802734375 C 173.2496643066406 99.762939453125 173.2549133300781 101.8282775878906 173.2928771972656 103.9563903808594 C 176.2011413574219 94.35311889648438 180.2535095214844 84.59756469726563 185.3786315917969 74.87252807617188 C 190.4421997070313 65.26422119140625 196.1367797851563 55.84030151367188 201.6437683105469 46.72659301757813 C 207.2724609375 37.41159057617188 212.5890197753906 28.61328125 216.1123962402344 21.35467529296875 C 219.5536499023438 14.26519775390625 220.966552734375 9.245147705078125 220.4092712402344 6.0638427734375 M 171.9272766113281 117.72314453125 C 170.458251953125 125.3154602050781 169.7602844238281 132.7431945800781 169.8482666015625 139.8841552734375 C 170.2528381347656 141.5497131347656 175.0609436035156 161.3536376953125 179.7652282714844 181.1137390136719 C 179.0658264160156 175.86669921875 178.3099365234375 170.5170593261719 177.5338439941406 165.0242309570313 C 175.3114929199219 149.295654296875 173.023681640625 133.1033325195313 171.9272766113281 117.72314453125 M 165.1082458496094 180.6133728027344 C 165.0691223144531 181.635498046875 165.0339660644531 182.5248413085938 165.001953125 183.3041381835938 C 165.1444702148438 183.2835388183594 165.2920532226563 183.2731018066406 165.4441528320313 183.2731018066406 C 167.2400817871094 183.2731018066406 169.4612731933594 184.6834106445313 171.8128967285156 186.1764831542969 C 173.4057006835938 187.1878051757813 175.3879699707031 188.4464111328125 176.2705688476563 188.4464111328125 C 176.3228759765625 188.4464111328125 176.3528747558594 188.4409790039063 176.3667297363281 188.4374694824219 C 176.4010009765625 188.38623046875 176.5823059082031 188.0541687011719 176.4630126953125 186.9316711425781 C 176.3264465332031 185.6470336914063 175.811767578125 184.5840454101563 174.8895263671875 183.6819763183594 C 174.080078125 182.8902282714844 172.9552001953125 182.2343444824219 171.5460205078125 181.7325439453125 C 169.3201904296875 180.9398498535156 166.8189086914063 180.6863098144531 165.1082458496094 180.6133728027344 M 378.5079956054688 339.7877807617188 C 365.2555541992188 341.8171997070313 351.9248657226563 343.4553833007813 338.73779296875 344.6770629882813 C 350.5139770507813 345.2324829101563 365.4249877929688 346.0926513671875 380.9118957519531 346.9860229492188 C 391.6907958984375 347.6078491210938 402.8349609375 348.2506713867188 413.7461242675781 348.8407897949219 C 418.7700500488281 347.3291320800781 423.8764343261719 345.7275695800781 428.9834594726563 344.0620727539063 C 413.1226501464844 343.006103515625 396.5523681640625 341.6024475097656 378.5079956054688 339.7877807617188 M 220.2126770019531 2.040435791015625 C 220.2127990722656 2.040802001953125 221.147705078125 4.8961181640625 221.147705078125 4.8961181640625 C 220.4463500976563 2.75408935546875 220.2126159667969 2.040252685546875 220.2126770019531 2.040435791015625 Z M 221.147705078125 4.8961181640625 C 224.7496337890625 15.86978149414063 201.9613342285156 45.55111694335938 186.2633361816406 75.3387451171875 C 179.9158325195313 87.38327026367188 175.3611145019531 99.19537353515625 172.5044860839844 110.5365295410156 C 172.304931640625 106.1934814453125 172.219482421875 101.9259643554688 172.2774658203125 97.7608642578125 C 172.6946411132813 67.792236328125 181.2089538574219 42.58441162109375 179.4033203125 39.88616943359375 C 178.7866516113281 38.964599609375 178.1942749023438 38.52749633789063 177.6244812011719 38.5277099609375 C 168.6395568847656 38.53097534179688 165.3646240234375 147.2537536621094 164.1464233398438 179.5879516601563 C 164.0510864257813 179.5870666503906 163.959716796875 179.586669921875 163.8724670410156 179.586669921875 C 163.1513671875 179.586669921875 162.7160949707031 179.6139221191406 162.7160949707031 179.6139221191406 C 162.7160949707031 179.6139221191406 164.6570739746094 230.7158203125 164.7610168457031 238.2574768066406 C 164.7091979980469 238.1124420166016 164.6678466796875 238.0183868408203 164.6446533203125 238.0183868408203 C 164.6041259765625 238.0183868408203 164.6194763183594 238.3070373535156 164.73291015625 239.1169128417969 C 164.7391662597656 239.16162109375 164.7445373535156 239.1837310791016 164.7489318847656 239.1837310791016 C 164.7658996582031 239.1837310791016 164.769287109375 238.8587188720703 164.7610168457031 238.2574768066406 C 164.934326171875 238.7426605224609 165.2239685058594 239.7966461181641 165.3359069824219 239.7966461181641 C 165.4551391601563 239.7966461181641 165.3727111816406 238.5990600585938 164.73291015625 234.2417907714844 C 164.4461975097656 232.2865295410156 183.3411560058594 218.9716796875 182.8807678222656 216.3225402832031 C 180.94970703125 212.4057922363281 183.2929382324219 206.4462890625 183.1838989257813 201.2332153320313 C 187.21142578125 232.0025024414063 205.4087829589844 256.4909362792969 205.4766540527344 258.1414184570313 C 214.1524658203125 274.786865234375 250.0945739746094 315.5106201171875 313.5108337402344 331.2412719726563 C 335.654541015625 334.1060791015625 354.9490966796875 336.3389282226563 371.7586364746094 338.0912475585938 C 353.7806396484375 340.6980590820313 337.5294799804688 343.1318054199219 327.0851745605469 344.6479187011719 C 325.1312255859375 344.7935180664063 323.1571655273438 344.931640625 321.1752319335938 345.0610961914063 C 320.5642700195313 345.0539245605469 319.9865112304688 345.0502624511719 319.4453735351563 345.0502624511719 C 316.1376037597656 345.0502624511719 314.1639709472656 345.1864624023438 313.8526611328125 345.4975891113281 C 307.773193359375 345.8251953125 301.5568237304688 346.0738830566406 295.2279663085938 346.2313537597656 C 295.2270812988281 346.2312622070313 295.226318359375 346.231201171875 295.2255249023438 346.231201171875 C 294.7223815917969 346.2320861816406 314.6199951171875 365.8699951171875 337.0184020996094 365.8699951171875 C 338.0930480957031 365.8699951171875 339.1748352050781 365.82470703125 340.259033203125 365.7299194335938 C 362.5798034667969 363.7782592773438 389.7648315429688 357.0942993164063 413.8667297363281 349.8488159179688 C 436.9392700195313 351.0957641601563 458.806396484375 352.0967407226563 472.8312377929688 352.0967407226563 C 483.1821594238281 352.0967407226563 489.271484375 351.5511169433594 488.4203491210938 350.1575317382813 C 484.8745422363281 344.3563842773438 476.5763854980469 346.042236328125 434.1912841796875 343.39599609375 C 456.8940734863281 335.8106689453125 473.5926818847656 328.9658508300781 475.041259765625 327.7127990722656 C 476.2174072265625 326.6952819824219 474.4898986816406 326.252685546875 470.5721435546875 326.2530517578125 C 461.5257568359375 326.2539672851563 440.8304443359375 328.6150512695313 417.3926696777344 331.7155456542969 C 459.140380859375 323.0109252929688 487.6925659179688 313.6725769042969 500.9654541015625 313.6706848144531 C 506.572509765625 313.6698608398438 509.4500122070313 315.3352661132813 509.4500122070313 319.4185485839844 C 509.4500122070313 456.1643676757813 388.984130859375 495.1179809570313 250.588134765625 495.1179809570313 C 112.192138671875 495.1179809570313 3.0517578125e-05 384.2636108398438 3.0517578125e-05 247.5178527832031 C 3.0517578125e-05 178.7350463867188 43.40969848632813 104.2586059570313 99.0640869140625 60.61190795898438 C 153.9795837402344 17.544677734375 221.147705078125 4.8961181640625 221.147705078125 4.8961181640625 Z M 172.5044860839844 110.5365295410156 C 173.8075561523438 138.8940124511719 179.9778747558594 170.5238952636719 182.8807678222656 198.6445922851563 C 177.1468200683594 174.1490478515625 168.8497619628906 140.0100402832031 168.8497619628906 140.0100402832031 C 168.7240295410156 130.6853332519531 169.9183044433594 120.8041076660156 172.5044860839844 110.5365295410156 Z M 168.8497619628906 140.0100402832031 C 168.8497619628906 140.0100402832031 168.8487548828125 140.0128479003906 168.8468017578125 140.0182800292969 C 168.8478698730469 140.0153503417969 168.8486938476563 140.0130004882813 168.8497619628906 140.0100402832031 Z M 168.8468017578125 140.0182800292969 L 168.8464965820313 140.0191040039063 C 168.8465881347656 140.0188293457031 168.8467102050781 140.0185546875 168.8468017578125 140.0182800292969 Z M 168.8464965820313 140.0191040039063 C 168.8460083007813 140.0204467773438 168.845458984375 140.0220031738281 168.8448791503906 140.0236206054688 C 168.845458984375 140.0219421386719 168.8458862304688 140.0207824707031 168.8464965820313 140.0191040039063 Z M 168.8448791503906 140.0236206054688 L 168.8447570800781 140.02392578125 C 168.8447875976563 140.0238037109375 168.8448181152344 140.0237426757813 168.8448791503906 140.0236206054688 Z M 168.8447570800781 140.02392578125 C 168.8441772460938 140.0255126953125 168.8435668945313 140.0272521972656 168.8428955078125 140.0291137695313 C 168.843505859375 140.0274353027344 168.8441467285156 140.0256042480469 168.8447570800781 140.02392578125 Z M 168.8428955078125 140.0291137695313 C 168.8427429199219 140.029541015625 168.8426513671875 140.0297241210938 168.8424987792969 140.0301513671875 C 168.8426513671875 140.02978515625 168.8427734375 140.0294494628906 168.8428955078125 140.0291137695313 Z M 168.8424987792969 140.0301513671875 C 168.8418579101563 140.031982421875 168.8411560058594 140.033935546875 168.8403930664063 140.0359802246094 C 168.8411560058594 140.0339050292969 168.8417663574219 140.0322570800781 168.8424987792969 140.0301513671875 Z M 168.8403930664063 140.0359802246094 C 168.8402404785156 140.0364074707031 168.8401184082031 140.0368041992188 168.8399658203125 140.0372314453125 C 168.8401184082031 140.0368041992188 168.8402709960938 140.036376953125 168.8403930664063 140.0359802246094 Z M 168.8399658203125 140.0372314453125 C 168.8398742675781 140.0375061035156 168.8397827148438 140.0377502441406 168.8396606445313 140.0379943847656 L 168.8399658203125 140.0372314453125 Z M 168.8396606445313 140.0379943847656 C 168.8395080566406 140.0384216308594 168.8395690917969 140.0382690429688 168.8394165039063 140.0386962890625 C 168.8395080566406 140.0384521484375 168.839599609375 140.0382385253906 168.8396606445313 140.0379943847656 Z M 168.8394165039063 140.0386962890625 C 168.8392944335938 140.0390319824219 168.8391723632813 140.0394287109375 168.8390197753906 140.039794921875 C 168.8391723632813 140.0393676757813 168.8392639160156 140.0390930175781 168.8394165039063 140.0386962890625 Z M 168.8390197753906 140.039794921875 C 168.0177612304688 142.3140563964844 167.7433776855469 143.0739135742188 167.7433471679688 143.0739135742188 C 167.7432861328125 143.0739135742188 168.7250671386719 140.3553771972656 168.8390197753906 140.039794921875 Z M 164.1464233398438 179.5879516601563 C 167.7138671875 179.6214294433594 176.7688598632813 180.3485412597656 177.4573974609375 186.8259887695313 C 177.6614074707031 188.7450561523438 177.1719970703125 189.4464111328125 176.2705688476563 189.4464111328125 C 173.8224792480469 189.4464111328125 168.334716796875 184.2731323242188 165.4441223144531 184.2731323242188 C 164.7699890136719 184.2731323242188 164.2372741699219 184.5544738769531 163.9170837402344 185.2481384277344 C 163.9840393066406 183.7901306152344 164.0601501464844 181.8786010742188 164.1464233398438 179.5879516601563 Z M 163.9170837402344 185.2481384277344 C 163.8189086914063 187.3858032226563 163.7401428222656 188.5594177246094 163.6766662597656 188.5594177246094 C 163.658935546875 188.5594177246094 163.642333984375 188.4673461914063 163.6268920898438 188.2796020507813 C 163.5101318359375 186.8584289550781 163.6246948242188 185.8815002441406 163.9170837402344 185.2481384277344 Z M 182.8807678222656 198.6445922851563 C 183.0753784179688 199.4763488769531 183.165283203125 200.3441772460938 183.1838989257813 201.2332153320313 C 183.0714416503906 200.3741455078125 182.9704284667969 199.5130920410156 182.8807678222656 198.6445922851563 Z M 417.3926696777344 331.7155456542969 C 405.4776306152344 334.1998901367188 392.499755859375 336.6308288574219 378.4819946289063 338.7800903320313 C 376.2809448242188 338.55859375 374.0508422851563 338.3302001953125 371.7586364746094 338.0912475585938 C 386.5560913085938 335.9456481933594 402.5268859863281 333.6820983886719 417.3926696777344 331.7155456542969 Z M 378.4819946289063 338.7800903320313 C 401.6838684082031 341.114990234375 419.8844604492188 342.5027465820313 434.1912841796875 343.39599609375 C 427.8213806152344 345.5242309570313 420.9778747558594 347.7110595703125 413.8667297363281 349.8488159179688 C 379.0198974609375 347.9655151367188 341.4228210449219 345.5205078125 323.8836669921875 345.1098937988281 C 324.8770141601563 344.9676513671875 325.94921875 344.8128051757813 327.0851745605469 344.6479187011719 C 345.4786071777344 343.2775268554688 362.6424560546875 341.2087097167969 378.4819946289063 338.7800903320313 Z M 321.1752319335938 345.0610961914063 C 322.0143432617188 345.0709228515625 322.91943359375 345.0873413085938 323.8836669921875 345.1098937988281 C 318.9070129394531 345.8225402832031 315.7879638671875 346.2388305664063 315.181640625 346.2388305664063 C 315.1349487304688 346.2388305664063 315.1029052734375 346.2363586425781 315.0863342285156 346.2313537597656 C 314.0599975585938 345.921875 313.6704406738281 345.6797485351563 313.8526611328125 345.4975891113281 C 316.3209838867188 345.3645629882813 318.74853515625 345.2196044921875 321.1752319335938 345.0610961914063 Z"/>
    </g>
    <g id="Group_2" data-name="Group 2" transform="translate(-59.7 1265)">
      <g id="Path_2" data-name="Path 2" class="cls-2" transform="translate(-779.148 -805)">
        <path class="cls-4" d="M 160.3568725585938 309.4293823242188 C 134.5847320556641 309.4293823242188 111.0695724487305 305.3058166503906 90.46452331542969 297.17333984375 C 71.01802825927734 289.4980163574219 54.21532440185547 278.2882385253906 40.52327728271484 263.8553161621094 C 27.41957664489746 250.0425720214844 17.32477569580078 233.4685821533203 10.5194263458252 214.5938262939453 C 7.207426071166992 205.4078826904297 4.679726123809814 195.6442718505859 3.006625890731812 185.57421875 C 1.343376040458679 175.5633239746094 0.5000259876251221 165.1021728515625 0.5000259876251221 154.4812774658203 C 0.5000259876251221 144.0417327880859 1.815526008605957 133.6086273193359 4.410026073455811 123.4718780517578 C 6.938926219940186 113.591423034668 10.71267604827881 103.8721237182617 15.62642574310303 94.58402252197266 C 20.45232582092285 85.46202850341797 26.42597579956055 76.66322326660156 33.38147735595703 68.43207550048828 C 40.2728271484375 60.27677536010742 48.18767547607422 52.60742568969727 56.90612411499023 45.63707733154297 C 65.62657928466797 38.66507720947266 75.22272491455078 32.33507537841797 85.42802429199219 26.82292556762695 C 95.73297882080078 21.25692558288574 106.7497253417969 16.47622680664063 118.1723785400391 12.61357593536377 C 129.8075256347656 8.679076194763184 141.9838256835938 5.657226085662842 154.3629760742188 3.631975889205933 C 167.0659332275391 1.553775906562805 180.1405334472656 0.5000259280204773 193.2235260009766 0.5000259280204773 C 206.3065185546875 0.5000259280204773 219.3811187744141 1.553775906562805 232.0840759277344 3.631975889205933 C 244.4632263183594 5.657226085662842 256.6395263671875 8.679076194763184 268.2746887207031 12.61357593536377 C 279.6973266601563 16.47622680664063 290.714111328125 21.25692558288574 301.0190124511719 26.82292556762695 C 311.2243347167969 32.33507537841797 320.8204650878906 38.66507720947266 329.5409851074219 45.63707733154297 C 338.2594299316406 52.60742568969727 346.1742858886719 60.27677536010742 353.0656127929688 68.43207550048828 C 360.0210876464844 76.66322326660156 365.9947204589844 85.46202850341797 370.8206176757813 94.58402252197266 C 375.7344360351563 103.8721237182617 379.5081787109375 113.591423034668 382.0370788574219 123.4718780517578 C 384.6315612792969 133.6086273193359 385.9470825195313 144.0417327880859 385.9470825195313 154.4812774658203 C 385.9470825195313 164.8277740478516 384.1603393554688 175.2617797851563 380.636474609375 185.4933776855469 C 377.2552795410156 195.3107757568359 372.2353210449219 205.0628814697266 365.7161254882813 214.4788208007813 C 359.4234619140625 223.5674285888672 351.6821899414063 232.4209747314453 342.7072143554688 240.7935333251953 C 333.9715270996094 248.94287109375 324.0258178710938 256.6769409179688 313.1465148925781 263.78076171875 C 302.44091796875 270.771240234375 290.8111877441406 277.16552734375 278.5804138183594 282.7861633300781 C 266.390869140625 288.3878173828125 253.5986785888672 293.2237854003906 240.5591278076172 297.1597290039063 C 227.3914794921875 301.1343383789063 213.9587249755859 304.1944885253906 200.6339721679688 306.2551879882813 C 187.0148773193359 308.3614196777344 173.4636688232422 309.4293823242188 160.3568725585938 309.4293823242188 Z"/>
        <path class="cls-6" d="M 193.2235260009766 0.999969482421875 C 180.16748046875 0.999969482421875 167.1200714111328 2.051513671875 154.4436798095703 4.1253662109375 C 142.0914306640625 6.146240234375 129.9418640136719 9.161376953125 118.33251953125 13.08718872070313 C 106.9365234375 16.94082641601563 95.94583129882813 21.71023559570313 85.66561889648438 27.2628173828125 C 75.486572265625 32.76083374023438 65.91552734375 39.07418823242188 57.21832275390625 46.027587890625 C 48.52517700195313 52.9776611328125 40.6337890625 60.62422180175781 33.76333618164063 68.75477600097656 C 26.83096313476563 76.95857238769531 20.87753295898438 85.72747802734375 16.06838989257813 94.81782531738281 C 11.1729736328125 104.0711822509766 7.41351318359375 113.7535247802734 4.894378662109375 123.5958709716797 C 2.310211181640625 133.6921234130859 0.999969482421875 144.0834808349609 0.999969482421875 154.4812774658203 C 0.999969482421875 165.0747833251953 1.841033935546875 175.5083770751953 3.49981689453125 185.4922790527344 C 5.16796875 195.5325775146484 7.68798828125 205.2666778564453 10.98971557617188 214.4242248535156 C 17.77151489257813 233.2336273193359 27.830078125 249.7488250732422 40.88601684570313 263.5111694335938 C 54.52752685546875 277.8907775878906 71.26986694335938 289.0598754882813 90.6480712890625 296.7081909179688 C 111.1944274902344 304.8175354003906 134.6478271484375 308.9293212890625 160.3568725585938 308.9293212890625 C 173.4381713867188 308.9293212890625 186.963623046875 307.8633728027344 200.5575714111328 305.7610168457031 C 213.859375 303.7038879394531 227.2692260742188 300.64892578125 240.4146270751953 296.6810302734375 C 253.4322814941406 292.7516784667969 266.202880859375 287.9239196777344 278.3716430664063 282.3318176269531 C 290.580078125 276.721435546875 302.1880798339844 270.339111328125 312.8731079101563 263.3621215820313 C 323.7284851074219 256.27392578125 333.6513671875 248.5577239990234 342.3661193847656 240.4278869628906 C 351.3149719238281 232.0797271728516 359.0326843261719 223.25341796875 365.3049621582031 214.1941833496094 C 371.7981872558594 204.8158264160156 376.79736328125 195.104736328125 380.1636657714844 185.3305358886719 C 383.66943359375 175.1514739990234 385.447021484375 164.7722778320313 385.447021484375 154.4812774658203 C 385.447021484375 144.0834808349609 384.1367797851563 133.6921234130859 381.5526123046875 123.5958709716797 C 379.0335388183594 113.7535247802734 375.2740173339844 104.0711822509766 370.3786315917969 94.81782531738281 C 365.5694885253906 85.72747802734375 359.6160278320313 76.95857238769531 352.6836853027344 68.75477600097656 C 345.813232421875 60.62422180175781 337.9218139648438 52.9776611328125 329.2287292480469 46.027587890625 C 320.5315246582031 39.07418823242188 310.9604797363281 32.76083374023438 300.7813720703125 27.2628173828125 C 290.501220703125 21.71023559570313 279.5104675292969 16.94082641601563 268.1144714355469 13.08718872070313 C 256.5051879882813 9.161376953125 244.3556213378906 6.146240234375 232.0033264160156 4.1253662109375 C 219.3269805908203 2.051513671875 206.2795715332031 0.999969482421875 193.2235260009766 0.999969482421875 M 193.2235260009766 -3.0517578125e-05 C 299.9379272460938 -3.0517578125e-05 386.447021484375 69.16361999511719 386.447021484375 154.4812774658203 C 386.447021484375 239.7989196777344 267.0712890625 309.9293212890625 160.3568725585938 309.9293212890625 C 53.64248657226563 309.9293212890625 -3.0517578125e-05 239.7989196777344 -3.0517578125e-05 154.4812774658203 C -3.0517578125e-05 69.16361999511719 86.50912475585938 -3.0517578125e-05 193.2235260009766 -3.0517578125e-05 Z"/>
      </g>
      <g id="Ellipse_2" data-name="Ellipse 2" class="cls-3" transform="translate(-462.3 -805)">
        <ellipse class="cls-4" cx="109.5" cy="154.5" rx="109.5" ry="154.5"/>
        <ellipse class="cls-7" cx="109.5" cy="154.5" rx="109" ry="154"/>
      </g>
      <g id="Path_3" data-name="Path 3" class="cls-2" transform="translate(-347.3 -745)">
        <path class="cls-4" d="M 96 248.5000152587891 C 89.52980804443359 248.5000152587891 83.06356048583984 247.6546173095703 76.78089141845703 245.9873352050781 C 70.65619659423828 244.3619842529297 64.63108825683594 241.9363403320313 58.87294769287109 238.7778167724609 C 53.21633529663086 235.6749877929688 47.75983428955078 231.8338928222656 42.65497207641602 227.3612823486328 C 37.595947265625 222.9288177490234 32.83813858032227 217.8377380371094 28.51369667053223 212.2294769287109 C 24.18744659423828 206.6188659667969 20.25941848754883 200.4445953369141 16.83872413635254 193.8781433105469 C 13.38422393798828 187.2467346191406 10.41700172424316 180.1570434570313 8.019501686096191 172.8059844970703 C 5.577223777770996 165.3175354003906 3.701445817947388 157.4806976318359 2.444279193878174 149.5131683349609 C 1.15414035320282 141.3368072509766 0.5000014305114746 132.921142578125 0.5000014305114746 124.5000076293945 C 0.5000014305114746 116.1093444824219 1.153612494468689 108.1671752929688 2.44269585609436 100.8941497802734 C 3.688556909561157 93.86503601074219 5.560584545135498 87.27670288085938 8.00675106048584 81.31220245361328 C 10.36825180053711 75.55420684814453 13.32633495330811 70.22750854492188 16.79886245727539 65.48009490966797 C 20.14902877807617 60.89995193481445 24.06458473205566 56.74050903320313 28.4367790222168 53.11731338500977 C 32.65325164794922 49.62317657470703 37.40166854858398 46.53867721557617 42.55014038085938 43.94953536987305 C 47.51191711425781 41.45428848266602 52.96861267089844 39.35689926147461 58.76861190795898 37.71570205688477 C 69.74652862548828 34.60931396484375 82.27297210693359 33.03423309326172 96 33.03423309326172 C 102.7587814331055 33.03423309326172 109.5827789306641 33.41387176513672 116.2825012207031 34.16259384155273 C 123.3209991455078 34.94917678833008 130.2423095703125 36.14636993408203 136.8541717529297 37.72098159790039 C 151.3501129150391 41.17317581176758 164.2333374023438 46.3665657043457 175.1459503173828 53.15684127807617 C 187.3492736816406 60.75028610229492 196.8818969726563 70.24503326416016 203.4789733886719 81.37737274169922 C 207.0482025146484 87.40034484863281 209.7910614013672 93.98040008544922 211.6313018798828 100.9347839355469 C 213.5718078613281 108.2679824829102 214.5557250976563 116.1964569091797 214.5557250976563 124.5000076293945 C 214.5557250976563 132.8264465332031 213.5706939697266 141.229736328125 211.6280059814453 149.4764556884766 C 209.7738037109375 157.3473358154297 207.0246429443359 165.1769866943359 203.4568023681641 172.7478637695313 C 200.0346984863281 180.0095977783203 195.8303680419922 187.0978393554688 190.9606475830078 193.815673828125 C 186.2532196044922 200.3096160888672 180.9039154052734 206.4871215820313 175.061279296875 212.1765899658203 C 169.3517761230469 217.7364196777344 163.1690216064453 222.8335723876953 156.6847229003906 227.3263702392578 C 150.2630004882813 231.7758483886719 143.5594940185547 235.6234283447266 136.7604217529297 238.7622375488281 C 129.9290313720703 241.9159545898438 123.0185012817383 244.3459014892578 116.2208633422852 245.9845428466797 C 109.2966995239258 247.6536712646484 102.4934158325195 248.5000152587891 96 248.5000152587891 Z"/>
        <path class="cls-6" d="M 96 33.53422546386719 C 82.31900024414063 33.53422546386719 69.83836364746094 35.10295104980469 58.90475463867188 38.19680786132813 C 53.13519287109375 39.82939147949219 47.70828247070313 41.91520690917969 42.7747802734375 44.39622497558594 C 37.65994262695313 46.96846008300781 32.94328308105469 50.03218078613281 28.75582885742188 53.5023193359375 C 24.41535949707031 57.09919738769531 20.52824401855469 61.22842407226563 17.20242309570313 65.77528381347656 C 13.75375366210938 70.49009704589844 10.81553649902344 75.78128051757813 8.4693603515625 81.50192260742188 C 6.036697387695313 87.43350219726563 4.174667358398438 93.98733520507813 2.935028076171875 100.9813995361328 C 1.651031494140625 108.2257080078125 1 116.1385040283203 1 124.5000152587891 C 1 132.8951416015625 1.652084350585938 141.2845611572266 2.93817138671875 149.4352264404297 C 4.19122314453125 157.376708984375 6.060775756835938 165.1876220703125 8.494857788085938 172.6509552001953 C 10.88383483886719 179.9759216308594 13.84033203125 187.0400695800781 17.28216552734375 193.6471557617188 C 20.68928527832031 200.1875305175781 24.60133361816406 206.3368225097656 28.90966796875 211.9241790771484 C 33.21434020996094 217.5067901611328 37.94981384277344 222.5740661621094 42.98446655273438 226.9851989746094 C 48.06205749511719 231.4339294433594 53.48861694335938 235.2540283203125 59.11338806152344 238.3394165039063 C 64.83613586425781 241.4785461425781 70.82350158691406 243.8890686035156 76.90916442871094 245.5040588378906 C 83.14997863769531 247.1602630615234 89.57308197021484 248 96 248 C 102.453971862793 248 109.2178344726563 247.1583709716797 116.1036682128906 245.4984588623047 C 122.8696365356445 243.8674621582031 129.7490539550781 241.4483184814453 136.5508422851563 238.3082580566406 C 143.3237609863281 235.1815338134766 150.001953125 231.3484191894531 156.3999786376953 226.9154052734375 C 162.8615264892578 222.4383239746094 169.0227508544922 217.3589172363281 174.7124481201172 211.818359375 C 180.5346374511719 206.1487884521484 185.8651123046875 199.9930725097656 190.5558013916016 193.5222320556641 C 195.4073028564453 186.8295288085938 199.5956420898438 179.7683410644531 203.0045318603516 172.5347290039063 C 206.5574951171875 164.9953460693359 209.2951049804688 157.1988525390625 211.1413116455078 149.36181640625 C 213.0751647949219 141.1526184082031 214.0557250976563 132.7879028320313 214.0557250976563 124.5000152587891 C 214.0557250976563 116.2396240234375 213.0774230957031 108.3541717529297 211.14794921875 101.0626831054688 C 209.3194732666016 94.15289306640625 206.5945281982422 87.61557006835938 203.048828125 81.63229370117188 C 196.4930877685547 70.56967163085938 187.0163116455078 61.13198852539063 174.8818054199219 53.58137512207031 C 164.0150299072266 46.81962585449219 151.1817321777344 41.64706420898438 136.7383117675781 38.20736694335938 C 130.1462707519531 36.63748168945313 123.2452545166016 35.44381713867188 116.2269744873047 34.65948486328125 C 109.5456161499023 33.91281127929688 102.7402801513672 33.53422546386719 96 33.53422546386719 M 96 32.53422546386719 C 149.0193328857422 32.53422546386719 215.0557250976563 55.74057006835938 215.0557250976563 124.5000152587891 C 215.0557250976563 193.2594604492188 149.0193328857422 249 96 249 C 42.98066711425781 249 0 193.2594604492188 0 124.5000152587891 C 0 55.74057006835938 42.98066711425781 32.53422546386719 96 32.53422546386719 Z"/>
      </g>
      <g id="Ellipse_5" data-name="Ellipse 5" class="cls-3" transform="translate(-660.3 -621)">
        <ellipse class="cls-4" cx="231.5" cy="62.5" rx="231.5" ry="62.5"/>
        <ellipse class="cls-7" cx="231.5" cy="62.5" rx="231" ry="62"/>
      </g>
      <g id="Rectangle_5" data-name="Rectangle 5" class="cls-3" transform="translate(-644.3 -543)">
        <rect class="cls-4" width="416" height="47" rx="23.5"/>
        <rect class="cls-7" x="0.5" y="0.5" width="415" height="46" rx="23"/>
      </g>
    </g>
  </g>
</svg>
