<svg xmlns="http://www.w3.org/2000/svg" width="159.941" height="130.461" viewBox="0 0 159.941 130.461">
  <g id="Group_8" data-name="Group 8" transform="translate(-1168.562 1686.738)">
    <g id="Path_6" data-name="Path 6" transform="translate(1246.713 -1555.61)" fill="#932098">
      <path d="M -43.09615707397461 -89.17476654052734 L -52.39148712158203 -102.5838088989258 L -52.42104721069336 -102.6264495849609 L -52.4587287902832 -102.662109375 L -54.17756652832031 -104.2887344360352 L -54.25350570678711 -104.360595703125 L -54.35186767578125 -104.3960113525391 L -69.63657379150391 -109.8990859985352 L -52.64166641235352 -115.669075012207 L -52.47790908813477 -115.7246704101563 L -52.38348770141602 -115.8695755004883 L -43.07309722900391 -130.1583251953125 L -35.19214630126953 -115.9006500244141 L -35.09862899780273 -115.7314682006836 L -34.91562652587891 -115.669189453125 L -18.02848625183105 -109.9223403930664 L -34.90998840332031 -104.4008026123047 L -35.1024284362793 -104.3378524780273 L -35.19684600830078 -104.1587448120117 L -43.09615707397461 -89.17476654052734 Z" stroke="none"/>
      <path d="M -43.10829162597656 -129.1884460449219 L -51.96456909179688 -115.5966110229492 L -52.15339660644531 -115.3068084716797 L -52.48091888427734 -115.1956253051758 L -68.12211608886719 -109.8852386474609 L -54.1825065612793 -104.866455078125 L -53.98577880859375 -104.7956237792969 L -53.83390808105469 -104.6518936157227 L -52.11505889892578 -103.0252685546875 L -52.03968811035156 -102.9539489746094 L -51.98056793212891 -102.8686599731445 L -43.15441131591797 -90.13642883300781 L -35.6391487121582 -104.3919219970703 L -35.45029830932617 -104.7501449584961 L -35.0654182434082 -104.8760223388672 L -19.60811614990234 -109.9317398071289 L -35.07671737670898 -115.1958541870117 L -35.44271850585938 -115.3204040527344 L -35.62974548339844 -115.6587600708008 L -43.10829162597656 -129.1884460449219 M -43.03790664672852 -131.1282196044922 L -34.75454711914063 -116.1425323486328 L -16.44886016845703 -109.9129333496094 L -34.75454711914063 -103.9255752563477 L -43.03790664672852 -88.21310424804688 L -52.80240631103516 -102.2989501953125 L -54.52125549316406 -103.9255752563477 L -71.15106964111328 -109.9129333496094 L -52.80240631103516 -116.1425323486328 L -43.03790664672852 -131.1282196044922 Z" stroke="none" fill="#8d4e5d"/>
    </g>
    <g id="Path_5" data-name="Path 5" transform="translate(1301.713 -1550.61)" fill="#932098">
      <path d="M -20.87682914733887 -40.1244010925293 L -37.86600494384766 -69.50295257568359 L -37.89089202880859 -69.54598999023438 L -37.92376708984375 -69.58329010009766 L -41.00125503540039 -73.074462890625 L -41.07534027099609 -73.15850067138672 L -41.17820358276367 -73.20290374755859 L -69.85791778564453 -85.58082580566406 L -38.1103515625 -98.50170135498047 L -37.94486618041992 -98.56905364990234 L -37.85953903198242 -98.72602844238281 L -20.85276031494141 -130.0137329101563 L -6.439215660095215 -98.75543975830078 L -6.356640815734863 -98.57635498046875 L -6.174028396606445 -98.50185394287109 L 25.44383811950684 -85.60356140136719 L -6.167678356170654 -73.20932769775391 L -6.359790802001953 -73.13400268554688 L -6.44286584854126 -72.94511413574219 L -20.87682914733887 -40.1244010925293 Z" stroke="none"/>
      <path d="M -20.88945388793945 -128.8992614746094 L -37.42023849487305 -98.48724365234375 L -37.59089279174805 -98.17330169677734 L -37.92187881469727 -98.03858947753906 L -68.56478118896484 -85.56729125976563 L -40.98006439208984 -73.66196441650391 L -40.77434539794922 -73.57318115234375 L -40.62618637084961 -73.40509796142578 L -37.54869079589844 -69.91392517089844 L -37.48293304443359 -69.83934020996094 L -37.43315887451172 -69.75325775146484 L -20.93758392333984 -41.22825622558594 L -6.900558471679688 -73.14640808105469 L -6.734424591064453 -73.52417755126953 L -6.350200653076172 -73.67483520507813 L 24.09754943847656 -85.61276245117188 L -6.362892150878906 -98.03890228271484 L -6.728118896484375 -98.18788909912109 L -6.893280029296875 -98.54608917236328 L -20.88945388793945 -128.8992614746094 M -20.81606483459473 -131.1282196044922 L -5.985172271728516 -98.96482086181641 L 26.79013061523438 -85.59435272216797 L -5.985172271728516 -72.74383544921875 L -20.81606483459473 -39.02053833007813 L -38.2988395690918 -69.25266265869141 L -41.3763313293457 -72.74383544921875 L -71.15106201171875 -85.59435272216797 L -38.2988395690918 -98.96482086181641 L -20.81606483459473 -131.1282196044922 Z" stroke="none" fill="#ab7447"/>
    </g>
    <g id="Path_4" data-name="Path 4" transform="translate(1239.713 -1492.61)" fill="#932098">
      <path d="M -35.76618194580078 -64.80651092529297 L -47.57940292358398 -86.05281066894531 L -47.60324096679688 -86.09568786621094 L -47.63496017456055 -86.13311767578125 L -49.80215072631836 -88.69010162353516 L -49.87543106079102 -88.77655792236328 L -49.97882080078125 -88.82296752929688 L -69.900146484375 -97.76524353027344 L -47.82149124145508 -107.1109237670898 L -47.65633010864258 -107.1808319091797 L -47.57326126098633 -107.3397827148438 L -35.74192810058594 -129.9779815673828 L -25.71807098388672 -107.3687210083008 L -25.63804054260254 -107.1882095336914 L -25.45627212524414 -107.1110916137695 L -3.482199430465698 -97.78784942626953 L -25.44978141784668 -88.82981109619141 L -25.64105224609375 -88.75180816650391 L -25.72150230407715 -88.56154632568359 L -35.76618194580078 -64.80651092529297 Z" stroke="none"/>
      <path d="M -35.77890777587891 -128.8277587890625 L -47.13013076782227 -107.1081924438477 L -47.29627227783203 -106.7902908325195 L -47.62657928466797 -106.6504669189453 L -68.64923095703125 -97.75178527832031 L -49.77407073974609 -89.27912139892578 L -49.56728363037109 -89.18630218505859 L -49.42072296142578 -89.01338958740234 L -47.25353240966797 -86.45641326904297 L -47.19009399414063 -86.38155364990234 L -47.14240264892578 -86.29579162597656 L -35.8274040222168 -65.945556640625 L -26.18202209472656 -88.75627899169922 L -26.0211296081543 -89.13678741455078 L -25.63858032226563 -89.29279327392578 L -4.783920288085938 -97.7969970703125 L -25.65156173706055 -106.6508026123047 L -26.01510238647461 -106.8050537109375 L -26.17516326904297 -107.1660690307617 L -35.77890777587891 -128.8277587890625 M -35.70495223999023 -131.1282196044922 L -25.26098251342773 -107.5713729858398 L -2.18048095703125 -97.7786865234375 L -25.26098251342773 -88.3668212890625 L -35.70495223999023 -63.66748046875 L -48.01639175415039 -85.80983734130859 L -50.1835823059082 -88.3668212890625 L -71.15106201171875 -97.7786865234375 L -48.01639175415039 -107.5713729858398 L -35.70495223999023 -131.1282196044922 Z" stroke="none" fill="#885157"/>
    </g>
  </g>
</svg>
